<?xml version="1.0" encoding="UTF-8" standalone="no"?>
<!-- Generator: Adobe Illustrator 19.1.1, SVG Export Plug-In . SVG Version: 6.00 Build 0)  -->

<svg
   xmlns:dc="http://purl.org/dc/elements/1.1/"
   xmlns:cc="http://creativecommons.org/ns#"
   xmlns:rdf="http://www.w3.org/1999/02/22-rdf-syntax-ns#"
   xmlns:svg="http://www.w3.org/2000/svg"
   xmlns="http://www.w3.org/2000/svg"
   xmlns:sodipodi="http://sodipodi.sourceforge.net/DTD/sodipodi-0.dtd"
   xmlns:inkscape="http://www.inkscape.org/namespaces/inkscape"
   version="1.1"
   id="Ebene_1"
   x="0px"
   y="0px"
   viewBox="0 0 46 26"
   style="enable-background:new 0 0 46 26;"
   xml:space="preserve"
   inkscape:version="0.91 r13725"
   sodipodi:docname="Telekom_logo_header2.svg"><metadata
     id="metadata15"><rdf:RDF><cc:Work
         rdf:about=""><dc:format>image/svg+xml</dc:format><dc:type
           rdf:resource="http://purl.org/dc/dcmitype/StillImage" /><dc:title></dc:title></cc:Work></rdf:RDF></metadata><defs
     id="defs13" /><sodipodi:namedview
     pagecolor="#ffffff"
     bordercolor="#666666"
     borderopacity="1"
     objecttolerance="10"
     gridtolerance="10"
     guidetolerance="10"
     inkscape:pageopacity="0"
     inkscape:pageshadow="2"
     inkscape:window-width="828"
     inkscape:window-height="480"
     id="namedview11"
     showgrid="false"
     inkscape:zoom="7.6086957"
     inkscape:cx="24.051429"
     inkscape:cy="11.948571"
     inkscape:window-x="1998"
     inkscape:window-y="233"
     inkscape:window-maximized="0"
     inkscape:current-layer="Ebene_1" /><style
     type="text/css"
     id="style3">
	.st0{fill:#FFFFFF;}
	.st1{fill:#FB0A80;}
</style><g
     id="g5"><path
       class="st0"
       d="M43.2,26H2.8C1.3,26,0,24.7,0,23.2V2.8C0,1.3,1.3,0,2.8,0h40.4C44.7,0,46,1.3,46,2.8v20.4   C46,24.7,44.7,26,43.2,26z"
       id="path7" /><g
       id="layer1_2_"
       transform="translate(-449.88641,-505.46578)"><path
         id="path108_3_"
         sodipodi:nodetypes="cccccccccccccccsccccccccscccccccccccsccccc"
         inkscape:connector-curvature="0"
         class="st1"
         d="    M486.3,518.1h3.3v3.3h-3.3V518.1z M476.5,518.1h3.3v3.3h-3.3V518.1z M466.6,518.1h3.3v3.3h-3.3V518.1z M464.6,523.4    c0,1,0.2,1.7,0.5,2c0.3,0.3,0.7,0.4,1.3,0.5c0.2,0,0.5,0,0.9,0v0.9h-7.9v-0.9c0.6,0,1.1,0,1.4-0.1c0.6-0.1,1-0.5,1.2-1.1    c0.1-0.3,0.1-0.8,0.1-1.4v-11.8c-1.3,0-2.4,0.5-3.1,1.3c-0.7,0.8-1.2,2-1.3,3.7l-0.9-0.1l0.2-5.7h12.8l0.2,5.7l-0.9,0.1    c-0.2-1.7-0.6-2.9-1.3-3.7c-0.8-0.8-1.8-1.3-3.2-1.3V523.4L464.6,523.4z M456.8,518.1h3.3v3.3h-3.3V518.1z" /></g></g></svg>